<?xml version="1.0" encoding="UTF-8"?>
<svg id="Capa_2" data-name="Capa 2" xmlns="http://www.w3.org/2000/svg" viewBox="0 0 416.77 416.78">
  <defs>
    <style>
      .cls-1 {
        fill:#cfd984;
      }
    </style>
  </defs>
  <g id="Capa_3" data-name="Capa 3">
    <g>
      <path class="cls-1" d="M346.59,120.04l-29.32,29.32-49.81-49.81,29.32-29.32c11.06-11.06,29-11.06,40.06,0l4.86,4.86-.02.03h.04s4.86,4.85,4.86,4.85c11.07,11.07,11.07,29,0,40.06Z"/>
      <path class="cls-1" d="M129.51,0l-30.35,30.36-23.42-14.18h-.01c-3.36-2.04-3.89-5.44-3.26-7.94.62-2.5,2.69-5.25,6.61-5.46l50.43-2.78Z"/>
      <polygon class="cls-1" points="247.59 38.45 179.67 79.09 106.74 34.95 141.62 .07 247.59 38.45"/>
      <polygon class="cls-1" points="283.51 121.7 185.52 140.33 115.53 133.68 135.88 113.33 181.35 88.1 233.75 71.94 283.51 121.7"/>
      <path class="cls-1" d="M117.47,218.29c.17-.53.23-1.09.18-1.65l-6.87-74.76,74.53,7.08c.14.01.27.01.41.01h.08c.24-.01.48-.03.72-.07l92.86-17.65-194.99,194.98,33.08-107.94Z"/>
      <path class="cls-1" d="M109,216.58l-30.21,98.56-2.44-88.68-.46-16.84s-.01-.02-.01-.03l-.43-15.87,25.1-45.06,2.02-2.02,6.43,69.94Z"/>
      <path class="cls-1" d="M254.49,80.51l-16.49-16.5c-.18-.18-.38-.33-.59-.48-.06-.04-.11-.07-.17-.11-.19-.12-.38-.22-.58-.31-.03-.01-.06-.03-.09-.04-.23-.09-.46-.16-.7-.21-.07-.01-.13-.02-.2-.04-.2-.03-.4-.05-.6-.05-.04-.01-.08-.02-.11-.02-.02,0-.04.01-.06.01-.13,0-.26.01-.39.03-.07.01-.14.01-.22.02-.2.03-.4.07-.6.14l-21.2,6.53,40.99-24.52,1.01,35.55Z"/>
      <path class="cls-1" d="M25.85,220.39v36.87s-18.59,0-18.59,0c-3,0-5.49-1.65-6.66-4.41-1.17-2.75-.62-5.69,1.46-7.84l23.79-24.62Z"/>
      <polygon class="cls-1" points="68.58 257.26 34.46 257.26 34.46 214.04 67.39 214.04 68.58 257.26"/>
      <path class="cls-1" d="M416.77,287.26l-2.77,50.43c-.22,3.93-2.97,5.99-5.47,6.62-2.5.62-5.9.09-7.93-3.27l-14.18-23.42,30.35-30.36Z"/>
      <polygon class="cls-1" points="416.71 275.15 381.83 310.03 365.17 282.51 337.68 237.11 378.32 169.18 416.71 275.15"/>
      <path class="cls-1" d="M344.84,183.03l-16.16,52.39-25.24,45.47-20.35,20.36-6.64-69.99,18.63-98,19.14,19.15,8.3,8.3s.01.01.01.01l22.31,22.31Z"/>
      <path class="cls-1" d="M267.82,231.46l7.08,74.53-74.76-6.86c-.56-.05-1.12,0-1.66.17l-107.94,33.08,194.99-194.99-17.65,92.86c-.08.4-.1.81-.06,1.21Z"/>
      <polygon class="cls-1" points="270.14 314.2 268.12 316.22 223.05 341.33 207.2 340.89 207.16 340.89 155.73 339.48 155.33 339.47 101.63 337.98 200.19 307.78 270.14 314.2"/>
      <path class="cls-1" d="M353.96,182.51c.22-1.35-.21-2.75-1.2-3.74l-16.49-16.49,35.55,1.01-24.53,40.99,6.54-21.19c.06-.19.1-.39.13-.58Z"/>
      <polygon class="cls-1" points="202.73 382.32 159.52 382.31 159.52 348.19 194.39 349.15 202.74 349.38 202.73 382.32"/>
      <path class="cls-1" d="M196.39,390.92l-24.62,23.79c-2.16,2.09-5.09,2.63-7.85,1.46-2.76-1.17-4.4-3.66-4.4-6.65v-18.6h36.87Z"/>
      <polygon class="cls-1" points="202.74 349.38 202.73 382.32 159.52 382.31 159.52 348.19 194.39 349.15 202.74 349.38"/>
      <polygon class="cls-1" points="68.58 257.26 34.46 257.26 34.46 214.04 67.39 214.04 68.58 257.26"/>
    </g>
  </g>
</svg>